<svg width="1186mm" height="463mm" viewBox="0 0 1186 463" xmlns="http://www.w3.org/2000/svg" version="1.1" preserveAspectRatio="xMidYMid meet"><g id="svgGroup" stroke-linecap="round" fill-rule="evenodd" font-size="9pt" stroke="#000" stroke-width="0.25mm" fill="none" style="stroke:#000;stroke-width:0.25mm;fill:none"><path d="M 0 303 L 0 341.414 L 6 341.414 L 6 369.138 L 0 369.138 L 0 396.862 L 6 396.862 L 6 424.586 L 0 424.586 L 0 452.31 L 0 463 L 29.569 463 L 29.569 457 L 57.293 457 L 57.293 463 L 85.017 463 L 85.017 457 L 112.742 457 L 112.742 463 L 140.466 463 L 140.466 457 L 168.19 457 L 168.19 463 L 195.914 463 L 195.914 457 L 223.638 457 L 223.638 463 L 251.362 463 L 251.362 457 L 279.086 457 L 279.086 463 L 306.81 463 L 306.81 457 L 334.534 457 L 334.534 463 L 362.258 463 L 362.258 457 L 389.983 457 L 389.983 463 L 417.707 463 L 417.707 457 L 445.431 457 L 445.431 463 L 475 463 L 475 424.586 L 469 424.586 L 469 396.862 L 475 396.862 L 475 369.138 L 469 369.138 L 469 341.414 L 475 341.414 L 475 313.69 L 475 303 L 445.431 303 L 445.431 309 L 417.707 309 L 417.707 303 L 389.983 303 L 389.983 309 L 362.258 309 L 362.258 303 L 334.534 303 L 334.534 309 L 306.81 309 L 306.81 303 L 279.086 303 L 279.086 309 L 251.362 309 L 251.362 303 L 223.638 303 L 223.638 309 L 195.914 309 L 195.914 303 L 168.19 303 L 168.19 309 L 140.466 309 L 140.466 303 L 112.742 303 L 112.742 309 L 85.017 309 L 85.017 303 L 57.293 303 L 57.293 309 L 29.569 309 L 29.569 303 L 0 303 Z" id="front_outsideCutPath" stroke="#FF0000" stroke-width="0.1" style="stroke:#FF0000;stroke-width:0.1" vector-effect="non-scaling-stroke"/><path d="M 484 303 L 484 341.414 L 478 341.414 L 478 369.138 L 484 369.138 L 484 396.862 L 478 396.862 L 478 424.586 L 484 424.586 L 484 452.31 L 484 463 L 523.69 463 L 523.69 457 L 551.414 457 L 551.414 463 L 579.138 463 L 579.138 457 L 606.862 457 L 606.862 463 L 634.586 463 L 634.586 457 L 662.31 457 L 662.31 463 L 690.034 463 L 702 463 L 702 424.586 L 708 424.586 L 708 396.862 L 702 396.862 L 702 369.138 L 708 369.138 L 708 341.414 L 702 341.414 L 702 313.69 L 702 303 L 662.31 303 L 662.31 309 L 634.586 309 L 634.586 303 L 606.862 303 L 606.862 309 L 579.138 309 L 579.138 303 L 551.414 303 L 551.414 309 L 523.69 309 L 523.69 303 L 495.966 303 L 484 303 Z" id="left_outsideCutPath" stroke="#FF0000" stroke-width="0.1" style="stroke:#FF0000;stroke-width:0.1" vector-effect="non-scaling-stroke"/><path d="M 717 239 L 717 278.69 L 711 278.69 L 711 306.414 L 717 306.414 L 717 334.138 L 711 334.138 L 711 361.862 L 717 361.862 L 717 389.586 L 711 389.586 L 711 417.31 L 717 417.31 L 717 445.034 L 717 457 L 740.569 457 L 740.569 463 L 768.293 463 L 768.293 457 L 796.017 457 L 796.017 463 L 823.742 463 L 823.742 457 L 851.466 457 L 851.466 463 L 879.19 463 L 879.19 457 L 906.914 457 L 906.914 463 L 934.638 463 L 934.638 457 L 962.362 457 L 962.362 463 L 990.086 463 L 990.086 457 L 1017.81 457 L 1017.81 463 L 1045.534 463 L 1045.534 457 L 1073.258 457 L 1073.258 463 L 1100.983 463 L 1100.983 457 L 1128.707 457 L 1128.707 463 L 1156.431 463 L 1156.431 457 L 1180 457 L 1180 417.31 L 1186 417.31 L 1186 389.586 L 1180 389.586 L 1180 361.862 L 1186 361.862 L 1186 334.138 L 1180 334.138 L 1180 306.414 L 1186 306.414 L 1186 278.69 L 1180 278.69 L 1180 250.966 L 1180 239 L 1156.431 239 L 1156.431 233 L 1128.707 233 L 1128.707 239 L 1100.983 239 L 1100.983 233 L 1073.258 233 L 1073.258 239 L 1045.534 239 L 1045.534 233 L 1017.81 233 L 1017.81 239 L 990.086 239 L 990.086 233 L 962.362 233 L 962.362 239 L 934.638 239 L 934.638 233 L 906.914 233 L 906.914 239 L 879.19 239 L 879.19 233 L 851.466 233 L 851.466 239 L 823.742 239 L 823.742 233 L 796.017 233 L 796.017 239 L 768.293 239 L 768.293 233 L 740.569 233 L 740.569 239 L 717 239 Z" id="top_outsideCutPath" stroke="#FF0000" stroke-width="0.1" style="stroke:#FF0000;stroke-width:0.1" vector-effect="non-scaling-stroke"/><path d="M 0 140 L 0 178.414 L 6 178.414 L 6 206.138 L 0 206.138 L 0 233.862 L 6 233.862 L 6 261.586 L 0 261.586 L 0 289.31 L 0 300 L 29.569 300 L 29.569 294 L 57.293 294 L 57.293 300 L 85.017 300 L 85.017 294 L 112.742 294 L 112.742 300 L 140.466 300 L 140.466 294 L 168.19 294 L 168.19 300 L 195.914 300 L 195.914 294 L 223.638 294 L 223.638 300 L 251.362 300 L 251.362 294 L 279.086 294 L 279.086 300 L 306.81 300 L 306.81 294 L 334.534 294 L 334.534 300 L 362.258 300 L 362.258 294 L 389.983 294 L 389.983 300 L 417.707 300 L 417.707 294 L 445.431 294 L 445.431 300 L 475 300 L 475 261.586 L 469 261.586 L 469 233.862 L 475 233.862 L 475 206.138 L 469 206.138 L 469 178.414 L 475 178.414 L 475 150.69 L 475 140 L 445.431 140 L 445.431 146 L 417.707 146 L 417.707 140 L 389.983 140 L 389.983 146 L 362.258 146 L 362.258 140 L 334.534 140 L 334.534 146 L 306.81 146 L 306.81 140 L 279.086 140 L 279.086 146 L 251.362 146 L 251.362 140 L 223.638 140 L 223.638 146 L 195.914 146 L 195.914 140 L 168.19 140 L 168.19 146 L 140.466 146 L 140.466 140 L 112.742 140 L 112.742 146 L 85.017 146 L 85.017 140 L 57.293 140 L 57.293 146 L 29.569 146 L 29.569 140 L 0 140 Z" id="back_outsideCutPath" stroke="#FF0000" stroke-width="0.1" style="stroke:#FF0000;stroke-width:0.1" vector-effect="non-scaling-stroke"/><path d="M 484 140 L 484 178.414 L 478 178.414 L 478 206.138 L 484 206.138 L 484 233.862 L 478 233.862 L 478 261.586 L 484 261.586 L 484 289.31 L 484 300 L 523.69 300 L 523.69 294 L 551.414 294 L 551.414 300 L 579.138 300 L 579.138 294 L 606.862 294 L 606.862 300 L 634.586 300 L 634.586 294 L 662.31 294 L 662.31 300 L 690.034 300 L 702 300 L 702 261.586 L 708 261.586 L 708 233.862 L 702 233.862 L 702 206.138 L 708 206.138 L 708 178.414 L 702 178.414 L 702 150.69 L 702 140 L 662.31 140 L 662.31 146 L 634.586 146 L 634.586 140 L 606.862 140 L 606.862 146 L 579.138 146 L 579.138 140 L 551.414 140 L 551.414 146 L 523.69 146 L 523.69 140 L 495.966 140 L 484 140 Z" id="right_outsideCutPath" stroke="#FF0000" stroke-width="0.1" style="stroke:#FF0000;stroke-width:0.1" vector-effect="non-scaling-stroke"/><path d="M 717 6 L 717 45.69 L 711 45.69 L 711 73.414 L 717 73.414 L 717 101.138 L 711 101.138 L 711 128.862 L 717 128.862 L 717 156.586 L 711 156.586 L 711 184.31 L 717 184.31 L 717 212.034 L 717 224 L 740.569 224 L 740.569 230 L 768.293 230 L 768.293 224 L 796.017 224 L 796.017 230 L 823.742 230 L 823.742 224 L 851.466 224 L 851.466 230 L 879.19 230 L 879.19 224 L 906.914 224 L 906.914 230 L 934.638 230 L 934.638 224 L 962.362 224 L 962.362 230 L 990.086 230 L 990.086 224 L 1017.81 224 L 1017.81 230 L 1045.534 230 L 1045.534 224 L 1073.258 224 L 1073.258 230 L 1100.983 230 L 1100.983 224 L 1128.707 224 L 1128.707 230 L 1156.431 230 L 1156.431 224 L 1180 224 L 1180 184.31 L 1186 184.31 L 1186 156.586 L 1180 156.586 L 1180 128.862 L 1186 128.862 L 1186 101.138 L 1180 101.138 L 1180 73.414 L 1186 73.414 L 1186 45.69 L 1180 45.69 L 1180 17.966 L 1180 6 L 1156.431 6 L 1156.431 0 L 1128.707 0 L 1128.707 6 L 1100.983 6 L 1100.983 0 L 1073.258 0 L 1073.258 6 L 1045.534 6 L 1045.534 0 L 1017.81 0 L 1017.81 6 L 990.086 6 L 990.086 0 L 962.362 0 L 962.362 6 L 934.638 6 L 934.638 0 L 906.914 0 L 906.914 6 L 879.19 6 L 879.19 0 L 851.466 0 L 851.466 6 L 823.742 6 L 823.742 0 L 796.017 0 L 796.017 6 L 768.293 6 L 768.293 0 L 740.569 0 L 740.569 6 L 717 6 Z" id="bottom_outsideCutPath" stroke="#FF0000" stroke-width="0.1" style="stroke:#FF0000;stroke-width:0.1" vector-effect="non-scaling-stroke"/></g></svg>